<mxfile host="65bd71144e">
    <diagram id="Ay9MGR8vCBXM3X2OFSrp" name="Page-1">
        <mxGraphModel dx="1982" dy="3710" grid="1" gridSize="10" guides="1" tooltips="1" connect="1" arrows="1" fold="1" page="1" pageScale="1" pageWidth="850" pageHeight="1100" math="0" shadow="0">
            <root>
                <mxCell id="0"/>
                <mxCell id="1" parent="0"/>
                <mxCell id="4" value="&lt;font style=&quot;font-size: 20px&quot;&gt;User&lt;br&gt;&lt;/font&gt;B" style="ellipse;whiteSpace=wrap;html=1;aspect=fixed;fontSize=30;" vertex="1" parent="1">
                    <mxGeometry x="450" y="-1080" width="80" height="80" as="geometry"/>
                </mxCell>
                <mxCell id="5" value="&lt;font style=&quot;font-size: 20px&quot;&gt;User&lt;br&gt;&lt;/font&gt;A" style="ellipse;whiteSpace=wrap;html=1;aspect=fixed;fontSize=30;" vertex="1" parent="1">
                    <mxGeometry x="40" y="-1080" width="80" height="80" as="geometry"/>
                </mxCell>
                <mxCell id="6" value="g" style="text;html=1;strokeColor=none;fillColor=none;align=center;verticalAlign=middle;whiteSpace=wrap;rounded=0;fontSize=40;" vertex="1" parent="1">
                    <mxGeometry x="200" y="-1210" width="60" height="30" as="geometry"/>
                </mxCell>
                <mxCell id="7" value="p" style="text;html=1;strokeColor=none;fillColor=none;align=center;verticalAlign=middle;whiteSpace=wrap;rounded=0;fontSize=40;" vertex="1" parent="1">
                    <mxGeometry x="310" y="-1210" width="60" height="30" as="geometry"/>
                </mxCell>
                <mxCell id="8" value="Public Domain" style="text;html=1;strokeColor=none;fillColor=none;align=center;verticalAlign=middle;whiteSpace=wrap;rounded=0;fontSize=30;" vertex="1" parent="1">
                    <mxGeometry x="160" y="-1250" width="260" height="30" as="geometry"/>
                </mxCell>
                <mxCell id="9" value="Generator &lt;br&gt;(a number)" style="text;html=1;strokeColor=none;fillColor=none;align=center;verticalAlign=middle;whiteSpace=wrap;rounded=0;fontSize=20;" vertex="1" parent="1">
                    <mxGeometry x="170" y="-1150" width="120" height="30" as="geometry"/>
                </mxCell>
                <mxCell id="10" value="large prime number" style="text;html=1;strokeColor=none;fillColor=none;align=center;verticalAlign=middle;whiteSpace=wrap;rounded=0;fontSize=20;" vertex="1" parent="1">
                    <mxGeometry x="290" y="-1140" width="100" height="30" as="geometry"/>
                </mxCell>
                <mxCell id="11" value="a" style="text;html=1;strokeColor=none;fillColor=none;align=center;verticalAlign=middle;whiteSpace=wrap;rounded=0;fontSize=40;" vertex="1" parent="1">
                    <mxGeometry x="50" y="-980" width="60" height="30" as="geometry"/>
                </mxCell>
                <mxCell id="12" value="secret value" style="text;html=1;strokeColor=none;fillColor=none;align=center;verticalAlign=middle;whiteSpace=wrap;rounded=0;fontSize=20;" vertex="1" parent="1">
                    <mxGeometry x="20" y="-940" width="120" height="30" as="geometry"/>
                </mxCell>
                <mxCell id="13" value="b" style="text;html=1;strokeColor=none;fillColor=none;align=center;verticalAlign=middle;whiteSpace=wrap;rounded=0;fontSize=40;" vertex="1" parent="1">
                    <mxGeometry x="460" y="-980" width="60" height="30" as="geometry"/>
                </mxCell>
                <mxCell id="14" value="secret value" style="text;html=1;strokeColor=none;fillColor=none;align=center;verticalAlign=middle;whiteSpace=wrap;rounded=0;fontSize=20;" vertex="1" parent="1">
                    <mxGeometry x="430" y="-940" width="120" height="30" as="geometry"/>
                </mxCell>
                <mxCell id="15" value="x = g&amp;nbsp; mod p" style="text;html=1;strokeColor=none;fillColor=none;align=center;verticalAlign=middle;whiteSpace=wrap;rounded=0;fontSize=40;" vertex="1" parent="1">
                    <mxGeometry x="-40" y="-860" width="240" height="30" as="geometry"/>
                </mxCell>
                <mxCell id="16" value="a" style="text;html=1;strokeColor=none;fillColor=none;align=center;verticalAlign=middle;whiteSpace=wrap;rounded=0;fontSize=25;" vertex="1" parent="1">
                    <mxGeometry x="50" y="-875" width="30" height="30" as="geometry"/>
                </mxCell>
                <mxCell id="17" value="y = g&amp;nbsp; mod p" style="text;html=1;strokeColor=none;fillColor=none;align=center;verticalAlign=middle;whiteSpace=wrap;rounded=0;fontSize=40;" vertex="1" parent="1">
                    <mxGeometry x="370" y="-852.5" width="240" height="30" as="geometry"/>
                </mxCell>
                <mxCell id="18" value="b" style="text;html=1;strokeColor=none;fillColor=none;align=center;verticalAlign=middle;whiteSpace=wrap;rounded=0;fontSize=25;" vertex="1" parent="1">
                    <mxGeometry x="460" y="-867.5" width="30" height="30" as="geometry"/>
                </mxCell>
                <mxCell id="40" value="transmit x to B" style="edgeStyle=orthogonalEdgeStyle;html=1;exitX=1;exitY=0.5;exitDx=0;exitDy=0;fontSize=20;endArrow=open;endFill=0;endSize=15;entryX=0;entryY=0.5;entryDx=0;entryDy=0;labelBackgroundColor=none;" edge="1" parent="1" source="19" target="23">
                    <mxGeometry x="-0.6193" y="15" relative="1" as="geometry">
                        <mxPoint x="370" y="-720" as="targetPoint"/>
                        <Array as="points">
                            <mxPoint x="320" y="-785"/>
                            <mxPoint x="320" y="-685"/>
                        </Array>
                        <mxPoint as="offset"/>
                    </mxGeometry>
                </mxCell>
                <mxCell id="19" value="x" style="text;html=1;strokeColor=none;fillColor=none;align=center;verticalAlign=middle;whiteSpace=wrap;rounded=0;fontSize=40;" vertex="1" parent="1">
                    <mxGeometry x="43" y="-800" width="40" height="30" as="geometry"/>
                </mxCell>
                <mxCell id="42" value="transmit y to A" style="edgeStyle=orthogonalEdgeStyle;html=1;exitX=0;exitY=1;exitDx=0;exitDy=0;entryX=1;entryY=0.5;entryDx=0;entryDy=0;fontSize=20;endArrow=open;endFill=0;endSize=15;jumpStyle=arc;jumpSize=14;labelBackgroundColor=none;" edge="1" parent="1" source="20" target="22">
                    <mxGeometry x="-0.6321" y="10" relative="1" as="geometry">
                        <Array as="points">
                            <mxPoint x="210" y="-750"/>
                            <mxPoint x="210" y="-675"/>
                        </Array>
                        <mxPoint as="offset"/>
                    </mxGeometry>
                </mxCell>
                <mxCell id="20" value="y" style="text;html=1;strokeColor=none;fillColor=none;align=center;verticalAlign=middle;whiteSpace=wrap;rounded=0;fontSize=40;" vertex="1" parent="1">
                    <mxGeometry x="480" y="-780" width="40" height="30" as="geometry"/>
                </mxCell>
                <mxCell id="21" value="x" style="text;html=1;strokeColor=none;fillColor=none;align=center;verticalAlign=middle;whiteSpace=wrap;rounded=0;fontSize=40;" vertex="1" parent="1">
                    <mxGeometry y="-690" width="70" height="30" as="geometry"/>
                </mxCell>
                <mxCell id="43" style="edgeStyle=orthogonalEdgeStyle;jumpStyle=arc;jumpSize=14;html=1;exitX=0.5;exitY=1;exitDx=0;exitDy=0;fontSize=30;endArrow=open;endFill=0;endSize=15;" edge="1" parent="1" source="22">
                    <mxGeometry relative="1" as="geometry">
                        <mxPoint x="100.14285714285711" y="-610" as="targetPoint"/>
                    </mxGeometry>
                </mxCell>
                <mxCell id="22" value="y" style="text;html=1;strokeColor=none;fillColor=none;align=center;verticalAlign=middle;whiteSpace=wrap;rounded=0;fontSize=40;" vertex="1" parent="1">
                    <mxGeometry x="80" y="-710" width="40" height="70" as="geometry"/>
                </mxCell>
                <mxCell id="44" style="edgeStyle=orthogonalEdgeStyle;jumpStyle=arc;jumpSize=14;html=1;exitX=0.5;exitY=1;exitDx=0;exitDy=0;fontSize=30;endArrow=open;endFill=0;endSize=15;" edge="1" parent="1" source="23">
                    <mxGeometry relative="1" as="geometry">
                        <mxPoint x="460.1428571428571" y="-620" as="targetPoint"/>
                    </mxGeometry>
                </mxCell>
                <mxCell id="23" value="x" style="text;html=1;strokeColor=none;fillColor=none;align=center;verticalAlign=middle;whiteSpace=wrap;rounded=0;fontSize=40;" vertex="1" parent="1">
                    <mxGeometry x="440" y="-720" width="40" height="70" as="geometry"/>
                </mxCell>
                <mxCell id="24" value="y" style="text;html=1;strokeColor=none;fillColor=none;align=center;verticalAlign=middle;whiteSpace=wrap;rounded=0;fontSize=40;" vertex="1" parent="1">
                    <mxGeometry x="490" y="-700" width="70" height="30" as="geometry"/>
                </mxCell>
                <mxCell id="27" value="= g&amp;nbsp; &amp;nbsp; mod p" style="text;html=1;strokeColor=none;fillColor=none;align=left;verticalAlign=middle;whiteSpace=wrap;rounded=0;fontSize=30;" vertex="1" parent="1">
                    <mxGeometry y="-490" width="350" height="30" as="geometry"/>
                </mxCell>
                <mxCell id="25" value="y&amp;nbsp; &amp;nbsp;mod p" style="text;html=1;strokeColor=none;fillColor=none;align=left;verticalAlign=middle;whiteSpace=wrap;rounded=0;fontSize=30;" vertex="1" parent="1">
                    <mxGeometry y="-595" width="210" height="30" as="geometry"/>
                </mxCell>
                <mxCell id="26" value="= (g&amp;nbsp; mod p)&amp;nbsp; mod p" style="text;html=1;strokeColor=none;fillColor=none;align=left;verticalAlign=middle;whiteSpace=wrap;rounded=0;fontSize=30;" vertex="1" parent="1">
                    <mxGeometry y="-540" width="350" height="30" as="geometry"/>
                </mxCell>
                <mxCell id="28" value="a" style="text;html=1;strokeColor=none;fillColor=none;align=center;verticalAlign=middle;whiteSpace=wrap;rounded=0;fontSize=25;" vertex="1" parent="1">
                    <mxGeometry x="10" y="-610" width="30" height="30" as="geometry"/>
                </mxCell>
                <mxCell id="29" value="a" style="text;html=1;strokeColor=none;fillColor=none;align=center;verticalAlign=middle;whiteSpace=wrap;rounded=0;fontSize=25;" vertex="1" parent="1">
                    <mxGeometry x="156" y="-555" width="30" height="30" as="geometry"/>
                </mxCell>
                <mxCell id="30" value="b" style="text;html=1;strokeColor=none;fillColor=none;align=center;verticalAlign=middle;whiteSpace=wrap;rounded=0;fontSize=25;" vertex="1" parent="1">
                    <mxGeometry x="48" y="-555" width="30" height="30" as="geometry"/>
                </mxCell>
                <mxCell id="31" value="ab" style="text;html=1;strokeColor=none;fillColor=none;align=center;verticalAlign=middle;whiteSpace=wrap;rounded=0;fontSize=25;" vertex="1" parent="1">
                    <mxGeometry x="44" y="-501" width="30" height="30" as="geometry"/>
                </mxCell>
                <mxCell id="32" value="= g&amp;nbsp; &amp;nbsp; mod p" style="text;html=1;strokeColor=none;fillColor=none;align=left;verticalAlign=middle;whiteSpace=wrap;rounded=0;fontSize=30;" vertex="1" parent="1">
                    <mxGeometry x="360" y="-490" width="350" height="30" as="geometry"/>
                </mxCell>
                <mxCell id="33" value="x&amp;nbsp; &amp;nbsp;mod p" style="text;html=1;strokeColor=none;fillColor=none;align=left;verticalAlign=middle;whiteSpace=wrap;rounded=0;fontSize=30;" vertex="1" parent="1">
                    <mxGeometry x="360" y="-595" width="210" height="30" as="geometry"/>
                </mxCell>
                <mxCell id="34" value="= (g&amp;nbsp; mod p)&amp;nbsp; mod p" style="text;html=1;strokeColor=none;fillColor=none;align=left;verticalAlign=middle;whiteSpace=wrap;rounded=0;fontSize=30;" vertex="1" parent="1">
                    <mxGeometry x="360" y="-540" width="350" height="30" as="geometry"/>
                </mxCell>
                <mxCell id="35" value="b" style="text;html=1;strokeColor=none;fillColor=none;align=center;verticalAlign=middle;whiteSpace=wrap;rounded=0;fontSize=25;" vertex="1" parent="1">
                    <mxGeometry x="370" y="-610" width="30" height="30" as="geometry"/>
                </mxCell>
                <mxCell id="36" value="b" style="text;html=1;strokeColor=none;fillColor=none;align=center;verticalAlign=middle;whiteSpace=wrap;rounded=0;fontSize=25;" vertex="1" parent="1">
                    <mxGeometry x="516" y="-555" width="30" height="30" as="geometry"/>
                </mxCell>
                <mxCell id="37" value="a" style="text;html=1;strokeColor=none;fillColor=none;align=center;verticalAlign=middle;whiteSpace=wrap;rounded=0;fontSize=25;" vertex="1" parent="1">
                    <mxGeometry x="408" y="-555" width="30" height="30" as="geometry"/>
                </mxCell>
                <mxCell id="38" value="ab" style="text;html=1;strokeColor=none;fillColor=none;align=center;verticalAlign=middle;whiteSpace=wrap;rounded=0;fontSize=25;" vertex="1" parent="1">
                    <mxGeometry x="404" y="-501" width="30" height="30" as="geometry"/>
                </mxCell>
                <mxCell id="39" value="" style="endArrow=open;html=1;fontSize=30;endFill=0;endSize=15;entryX=0;entryY=0.5;entryDx=0;entryDy=0;" edge="1" parent="1" target="19">
                    <mxGeometry width="50" height="50" relative="1" as="geometry">
                        <mxPoint x="-20" y="-820" as="sourcePoint"/>
                        <mxPoint x="40" y="-790" as="targetPoint"/>
                        <Array as="points">
                            <mxPoint x="-20" y="-785"/>
                        </Array>
                    </mxGeometry>
                </mxCell>
                <mxCell id="41" value="" style="endArrow=open;html=1;fontSize=30;endFill=0;endSize=15;entryX=0;entryY=0.25;entryDx=0;entryDy=0;" edge="1" parent="1" target="20">
                    <mxGeometry width="50" height="50" relative="1" as="geometry">
                        <mxPoint x="395" y="-805" as="sourcePoint"/>
                        <mxPoint x="455" y="-750" as="targetPoint"/>
                        <Array as="points">
                            <mxPoint x="395" y="-772"/>
                        </Array>
                    </mxGeometry>
                </mxCell>
                <mxCell id="45" value="" style="endArrow=none;dashed=1;html=1;strokeWidth=3;fontSize=30;endSize=15;jumpStyle=none;jumpSize=14;fillColor=#e51400;strokeColor=#B20000;" edge="1" parent="1">
                    <mxGeometry width="50" height="50" relative="1" as="geometry">
                        <mxPoint x="280" y="-440" as="sourcePoint"/>
                        <mxPoint x="280" y="-1080" as="targetPoint"/>
                    </mxGeometry>
                </mxCell>
                <mxCell id="47" value="Now both have the same key, but any eavesdropers do not (a and b never shared)" style="text;html=1;strokeColor=none;fillColor=none;align=center;verticalAlign=middle;whiteSpace=wrap;rounded=0;fontSize=20;" vertex="1" parent="1">
                    <mxGeometry x="80" y="-420" width="400" height="90" as="geometry"/>
                </mxCell>
            </root>
        </mxGraphModel>
    </diagram>
</mxfile>